# xmcd
#
# Track frame offsets:
#	150
#	15110
#	28160
#	40312
#	55325
#	71427
#	84840
#	98295
#	109555
#	122790
#	137055
#	149795
#	163740
#	176895
#	190467
#	204997
#	218770
#	231302
#	244675
#	258202
#	273820
#	286785
#
# Disc length: 3996 seconds
#
# Revision: 2
# Processed by: cddbd v1.4PL0 Copyright (c) Steve Scherf et al.
# Submitted via: audiograbber 1.81.03
#
DISCID=330f9a16
DTITLE=Various Artist - Indigo 5th Anniversary Box [CD1)
DYEAR=1900
DGENRE=Blues
TTITLE0=Ma Rainey - See See Rider Blues
TTITLE1=Blind Lemon Jefferson - Matchbox Blues
TTITLE2=Lonnie Johnson - Mr Johnson's Blues
TTITLE3=Blind Willie Johnson - Dark was the Night, Cold was the Ground
TTITLE4=Tommy Johnson - Cold Drink of Water
TTITLE5=Charley Patton - Stone Poney Blues
TTITLE6=Bessie Smith - Nobdy knows you when you're down and out
TTITLE7=Blind Willie McTell - Statesboro Blues
TTITLE8=Cannon's Jug Stompers - Walk Right In
TTITLE9=Son House - My Black Mama Pt1.
TTITLE10=Skip James - I'm so glad
TTITLE11=Leroy Care/Scraper Blackwell - Midnight Hour Blues
TTITLE12=Tampa Red - Denver Blues
TTITLE13=Sleepy John Estes - Someday Baby Blues
TTITLE14=Blind Boy Fuller - Baby you gotta change your mind
TTITLE15=Memphis Minni - Picking The Blues
TTITLE16=Big Joe Williams - Baby Please Don't Go
TTITLE17=Robert Johnson - I Believe I'll Dust My Bloom
TTITLE18=Sonny Boy Williamson - Good Morning Little School Girl
TTITLE19=Big Bill Broonzy - Too Many Drivers
TTITLE20=Big Macco - Worried Life Blues
TTITLE21=Doctor Clayton - Gotta Find My Baby
EXTD=
EXTT0=
EXTT1=
EXTT2=
EXTT3=
EXTT4=
EXTT5=
EXTT6=
EXTT7=
EXTT8=
EXTT9=
EXTT10=
EXTT11=
EXTT12=
EXTT13=
EXTT14=
EXTT15=
EXTT16=
EXTT17=
EXTT18=
EXTT19=
EXTT20=
EXTT21=
PLAYORDER=
